<svg xmlns="http://www.w3.org/2000/svg" xmlns:xlink="http://www.w3.org/1999/xlink" width="181" height="29" viewBox="0 0 181 29">
  <defs>
    <clipPath id="clip-Logo">
      <rect width="181" height="29"/>
    </clipPath>
  </defs>
  <g id="Logo" clip-path="url(#clip-Logo)">
    <rect width="181" height="29" fill="#fff"/>
    <path id="Path_5" data-name="Path 5" d="M8.94-16.35a11.043,11.043,0,0,1,2.985.36,4.844,4.844,0,0,1,1.98,1.005,2.023,2.023,0,0,1,.7,1.545,1.953,1.953,0,0,1-.36,1.125,1.193,1.193,0,0,1-1.05.525,2.028,2.028,0,0,1-.8-.135,2.079,2.079,0,0,1-.555-.345,3.16,3.16,0,0,0-.57-.39,2.741,2.741,0,0,0-.915-.285,6.017,6.017,0,0,0-.915-.105,4.834,4.834,0,0,0-2.6.66A4.4,4.4,0,0,0,5.22-10.605a5.666,5.666,0,0,0-.57,2.6,5.478,5.478,0,0,0,.585,2.565A4.58,4.58,0,0,0,6.855-3.66,4.339,4.339,0,0,0,9.24-3a7.973,7.973,0,0,0,1.29-.09,3.2,3.2,0,0,0,.9-.27,5.458,5.458,0,0,0,.75-.51,1.539,1.539,0,0,1,.99-.27,1.487,1.487,0,0,1,1.2.5,1.814,1.814,0,0,1,.42,1.215,1.717,1.717,0,0,1-.84,1.365,6.744,6.744,0,0,1-2.2.99A11.122,11.122,0,0,1,8.79.3,7.555,7.555,0,0,1,4.68-.8,7.319,7.319,0,0,1,2-3.78,9.326,9.326,0,0,1,1.05-8.01a9.037,9.037,0,0,1,1.005-4.335,7.452,7.452,0,0,1,2.79-2.94A7.837,7.837,0,0,1,8.94-16.35ZM32.82-8.01a8.437,8.437,0,0,1-1.095,4.335A7.86,7.86,0,0,1,28.785-.75,8.191,8.191,0,0,1,24.66.3,8.191,8.191,0,0,1,20.535-.75a7.86,7.86,0,0,1-2.94-2.925A8.437,8.437,0,0,1,16.5-8.01a8.437,8.437,0,0,1,1.095-4.335,7.974,7.974,0,0,1,2.94-2.94A8.1,8.1,0,0,1,24.66-16.35a8.1,8.1,0,0,1,4.125,1.065,7.974,7.974,0,0,1,2.94,2.94A8.437,8.437,0,0,1,32.82-8.01Zm-3.6,0a5.453,5.453,0,0,0-.615-2.655,4.577,4.577,0,0,0-1.65-1.755,4.328,4.328,0,0,0-2.3-.63,4.328,4.328,0,0,0-2.3.63,4.577,4.577,0,0,0-1.65,1.755A5.453,5.453,0,0,0,20.1-8.01a5.388,5.388,0,0,0,.615,2.625,4.577,4.577,0,0,0,1.65,1.755,4.328,4.328,0,0,0,2.3.63,4.328,4.328,0,0,0,2.3-.63A4.577,4.577,0,0,0,28.6-5.385,5.388,5.388,0,0,0,29.22-8.01ZM44.4-16.35a5.282,5.282,0,0,1,3.375.93,4.727,4.727,0,0,1,1.59,2.475A12.66,12.66,0,0,1,49.8-9.51v7.68a1.8,1.8,0,0,1-.51,1.305A1.722,1.722,0,0,1,48,0a1.722,1.722,0,0,1-1.29-.525A1.8,1.8,0,0,1,46.2-1.83V-9.51a5.83,5.83,0,0,0-.255-1.785,2.466,2.466,0,0,0-.915-1.275,3.178,3.178,0,0,0-1.89-.48,3.967,3.967,0,0,0-2.025.48,3.283,3.283,0,0,0-1.26,1.275A3.657,3.657,0,0,0,39.42-9.51v7.68a1.8,1.8,0,0,1-.51,1.305A1.722,1.722,0,0,1,37.62,0a1.722,1.722,0,0,1-1.29-.525,1.8,1.8,0,0,1-.51-1.305V-14.22a1.8,1.8,0,0,1,.51-1.305,1.722,1.722,0,0,1,1.29-.525,1.722,1.722,0,0,1,1.29.525,1.8,1.8,0,0,1,.51,1.305v1.29l-.45-.09a5.933,5.933,0,0,1,.78-1.1,7.483,7.483,0,0,1,1.2-1.1,6.1,6.1,0,0,1,1.56-.825A5.512,5.512,0,0,1,44.4-16.35Zm9.87.3a2.019,2.019,0,0,1,1.05.285,1.746,1.746,0,0,1,.72.855L60.45-4.83l-.66.3,4.5-10.35a1.575,1.575,0,0,1,1.59-1.14,1.643,1.643,0,0,1,1.215.465A1.568,1.568,0,0,1,67.56-14.4a1.513,1.513,0,0,1-.075.45,4.707,4.707,0,0,1-.165.45L61.71-1.14A1.714,1.714,0,0,1,60.18,0a1.636,1.636,0,0,1-1.1-.21,1.882,1.882,0,0,1-.8-.93L52.71-13.5q-.06-.15-.135-.39a1.921,1.921,0,0,1-.075-.57,1.584,1.584,0,0,1,.48-1.065A1.662,1.662,0,0,1,54.27-16.05ZM77.67.3A8.811,8.811,0,0,1,73.245-.765a7.355,7.355,0,0,1-2.88-2.9,8.457,8.457,0,0,1-1-4.14,9.1,9.1,0,0,1,1.095-4.605A7.745,7.745,0,0,1,73.32-15.33a7.4,7.4,0,0,1,3.75-1.02,6.826,6.826,0,0,1,2.895.63A7.914,7.914,0,0,1,82.38-14a8.385,8.385,0,0,1,1.665,2.535A7.709,7.709,0,0,1,84.66-8.4a1.54,1.54,0,0,1-.57,1.17,1.908,1.908,0,0,1-1.26.45H71.37l-.9-3H81.48l-.66.6v-.81a2.736,2.736,0,0,0-.615-1.56,4.016,4.016,0,0,0-1.38-1.1,3.93,3.93,0,0,0-1.755-.405,5.685,5.685,0,0,0-1.68.24,3.218,3.218,0,0,0-1.35.81,3.931,3.931,0,0,0-.9,1.53,7.583,7.583,0,0,0-.33,2.43A5.245,5.245,0,0,0,73.485-5.3a4.6,4.6,0,0,0,1.74,1.71A4.634,4.634,0,0,0,77.49-3a6.973,6.973,0,0,0,1.77-.18,3.978,3.978,0,0,0,1.065-.435q.4-.255.735-.435a2.289,2.289,0,0,1,1.02-.27,1.459,1.459,0,0,1,1.095.45,1.463,1.463,0,0,1,.435,1.05,1.872,1.872,0,0,1-.84,1.47A6.959,6.959,0,0,1,80.58-.2,8.723,8.723,0,0,1,77.67.3ZM89.46,0a1.722,1.722,0,0,1-1.29-.525,1.8,1.8,0,0,1-.51-1.305V-14.22a1.8,1.8,0,0,1,.51-1.305,1.722,1.722,0,0,1,1.29-.525,1.722,1.722,0,0,1,1.29.525,1.8,1.8,0,0,1,.51,1.305v2.82l-.21-2.01a4.673,4.673,0,0,1,.855-1.275,5.072,5.072,0,0,1,1.185-.93,5.381,5.381,0,0,1,1.41-.555,6.408,6.408,0,0,1,1.5-.18,2.294,2.294,0,0,1,1.515.51,1.521,1.521,0,0,1,.615,1.2,1.779,1.779,0,0,1-.51,1.425,1.676,1.676,0,0,1-1.11.435,2.486,2.486,0,0,1-1.035-.21,2.562,2.562,0,0,0-1.065-.21,2.608,2.608,0,0,0-1.1.255,3.016,3.016,0,0,0-1.02.8,4.187,4.187,0,0,0-.75,1.335A5.56,5.56,0,0,0,91.26-8.94v7.11a1.8,1.8,0,0,1-.51,1.305A1.722,1.722,0,0,1,89.46,0Zm11.4-15.75h7.11a1.628,1.628,0,0,1,1.2.48,1.628,1.628,0,0,1,.48,1.2,1.543,1.543,0,0,1-.48,1.155,1.656,1.656,0,0,1-1.2.465h-7.11a1.628,1.628,0,0,1-1.2-.48,1.628,1.628,0,0,1-.48-1.2,1.543,1.543,0,0,1,.48-1.155A1.656,1.656,0,0,1,100.86-15.75Zm3.21-3.75a1.674,1.674,0,0,1,1.275.525,1.829,1.829,0,0,1,.5,1.305V-4.32a1.305,1.305,0,0,0,.165.69.948.948,0,0,0,.45.39,1.569,1.569,0,0,0,.615.12,1.59,1.59,0,0,0,.66-.135,1.666,1.666,0,0,1,.69-.135,1.01,1.01,0,0,1,.765.39,1.574,1.574,0,0,1,.345,1.08,1.585,1.585,0,0,1-.915,1.38A3.8,3.8,0,0,1,106.65,0a10.332,10.332,0,0,1-1.395-.105,3.769,3.769,0,0,1-1.44-.51A3.12,3.12,0,0,1,102.69-1.86a4.935,4.935,0,0,1-.45-2.31v-13.5a1.772,1.772,0,0,1,.525-1.305A1.772,1.772,0,0,1,104.07-19.5ZM120.21.3a8.811,8.811,0,0,1-4.425-1.065,7.355,7.355,0,0,1-2.88-2.9,8.457,8.457,0,0,1-1-4.14,9.1,9.1,0,0,1,1.095-4.605,7.745,7.745,0,0,1,2.865-2.925,7.4,7.4,0,0,1,3.75-1.02,6.826,6.826,0,0,1,2.895.63A7.914,7.914,0,0,1,124.92-14a8.385,8.385,0,0,1,1.665,2.535A7.709,7.709,0,0,1,127.2-8.4a1.54,1.54,0,0,1-.57,1.17,1.908,1.908,0,0,1-1.26.45H113.91l-.9-3h11.01l-.66.6v-.81a2.736,2.736,0,0,0-.615-1.56,4.016,4.016,0,0,0-1.38-1.1,3.93,3.93,0,0,0-1.755-.405,5.685,5.685,0,0,0-1.68.24,3.218,3.218,0,0,0-1.35.81,3.931,3.931,0,0,0-.9,1.53,7.583,7.583,0,0,0-.33,2.43,5.245,5.245,0,0,0,.675,2.745,4.6,4.6,0,0,0,1.74,1.71A4.634,4.634,0,0,0,120.03-3a6.973,6.973,0,0,0,1.77-.18,3.978,3.978,0,0,0,1.065-.435q.4-.255.735-.435a2.289,2.289,0,0,1,1.02-.27,1.459,1.459,0,0,1,1.1.45,1.463,1.463,0,0,1,.435,1.05,1.872,1.872,0,0,1-.84,1.47A6.959,6.959,0,0,1,123.12-.2,8.723,8.723,0,0,1,120.21.3Zm13.38-2.13a1.8,1.8,0,0,1-.51,1.305A1.722,1.722,0,0,1,131.79,0a1.722,1.722,0,0,1-1.29-.525,1.8,1.8,0,0,1-.51-1.305V-14.22a1.8,1.8,0,0,1,.51-1.305,1.722,1.722,0,0,1,1.29-.525,1.722,1.722,0,0,1,1.29.525,1.8,1.8,0,0,1,.51,1.305ZM131.76-18a2.383,2.383,0,0,1-1.44-.33,1.41,1.41,0,0,1-.42-1.17v-.57a1.333,1.333,0,0,1,.465-1.185,2.572,2.572,0,0,1,1.425-.315,2.449,2.449,0,0,1,1.47.33,1.41,1.41,0,0,1,.42,1.17v.57a1.355,1.355,0,0,1-.45,1.185A2.629,2.629,0,0,1,131.76-18Z" transform="translate(46 22)" fill="#141313" stroke="#141313" stroke-width="0.5"/>
    <line id="Line_7" data-name="Line 7" x2="23.156" transform="translate(7.307 19.872)" fill="none" stroke="#0ce469" stroke-linecap="round" stroke-width="4"/>
    <line id="Line_6" data-name="Line 6" x1="23.156" transform="translate(2.43 9.192)" fill="none" stroke="#0ce469" stroke-linecap="round" stroke-width="4"/>
    <line id="Line_8" data-name="Line 8" y1="6.675" x2="10.68" transform="translate(19.784 19.872)" fill="none" stroke="#0ce469" stroke-linecap="round" stroke-width="4"/>
    <line id="Line_5" data-name="Line 5" y1="6.675" x2="10.68" transform="translate(13.109 9.192) rotate(180)" fill="none" stroke="#0ce469" stroke-linecap="round" stroke-width="4"/>
  </g>
</svg>
